:SAMPLES-PER-SECOND 30
:FRAME-RANGE 1-2643
:FULLY-SPECIFIED
:DEGREES
2231
root  -24.2698 38.9834 79.2156 0.00195313 74.754 -1.40544
RightUpLeg  15.5146 -10.2094 -3.5853
RightLeg  -1.80816 -31.1525 7.71927
RightFoot  -8.39634 -0.522382 17.9478
RightToes  7.56698e-010 0 -3.6325e-017
Spine  8.76924 4.48694 13.1292
Spine1  -1.59703 6.50682 -6.51646
HEad  2.73898 45.8428 -20.9995
LeftShoulder1  -0.274756 4.3304 -27.0361
LeftArm  -10.1589 23.245 -28.7038
LeftForeArm  9.48258 -36.2152 -7.65155
LeftHand  0.310367 -1.81085 -4.86192
RightShoulder  5.95291 9.3907 40.0789
RightArm  23.6628 0.625647 14.2755
RightForeArm  -5.28936 27.1278 6.11793
RightHand  0.180303 3.28049 2.1753
LeftUpLeg  -20.9516 4.90237 -7.45161
LeftLeg  5.62342 2.64306 -5.91622
LeftFoot  -4.6587 0.916504 -15.1485
LeftToes  1.48244e-010 1.61973e-010 3.308e-011
2232
root  -22.9628 38.7049 79.9423 -3.12109 77.2755 -4.9795
RightUpLeg  17.8493 -10.0057 -2.48388
RightLeg  -1.66005 -32.001 8.43943
RightFoot  -9.36799 -0.419151 20.4062
RightToes  7.56698e-010 0 -3.6325e-017
Spine  7.7299 4.41803 13.1131
Spine1  -1.37639 6.54542 -7.42855
HEad  -0.726234 44.8737 -23.2715
LeftShoulder1  -0.288563 4.35398 -27.7575
LeftArm  -10.791 23.7007 -29.5694
LeftForeArm  9.59376 -35.1427 -7.34302
LeftHand  0.345123 -2.04694 -5.22902
RightShoulder  7.00627 11.3275 41.0786
RightArm  23.62 3.43245 16.1899
RightForeArm  -4.14348 27.9292 6.25091
RightHand  0.209447 3.49271 2.48848
LeftUpLeg  -18.9631 0.392368 -6.60648
LeftLeg  -3.34249 13.3147 -7.58711
LeftFoot  -4.99153 0.938686 -16.2929
LeftToes  1.48244e-010 1.61973e-010 3.308e-011
2233
root  -21.5356 38.3087 80.6488 -7.98486 79.5391 -10.0961
RightUpLeg  19.7992 -10.5474 -1.96145
RightLeg  0.725541 -31.3411 8.38998
RightFoot  -10.7647 -0.195676 23.8732
RightToes  7.56698e-010 0 -3.6325e-017
Spine  6.70741 4.3697 12.9147
Spine1  -0.853323 6.57573 -8.22193
HEad  -4.8483 43.1718 -24.8142
LeftShoulder1  -0.222509 4.14579 -28.4966
LeftArm  -10.0712 23.6558 -30.1402
LeftForeArm  8.30033 -32.4983 -6.70939
LeftHand  0.333814 -2.22857 -4.91535
RightShoulder  8.06617 13.1836 42.0905
RightArm  22.3984 6.39411 18.2786
RightForeArm  -2.41179 28.0602 6.19256
RightHand  0.254478 3.96819 2.88696
LeftUpLeg  -17.9535 -0.952629 -7.63669
LeftLeg  -5.87651 20.2365 -7.35022
LeftFoot  -4.78357 0.90103 -15.1557
LeftToes  1.48244e-010 1.61973e-010 3.308e-011
2234
root  -19.9856 37.8283 81.3724 -13.9692 81.0745 -15.9583
RightUpLeg  21.7457 -15.9027 -4.26563
RightLeg  6.46932 -23.6173 6.9573
RightFoot  -12.147 0.114831 27.6935
RightToes  7.56698e-010 0 -3.6325e-017
Spine  5.92178 4.55134 11.9726
Spine1  -0.0215689 6.81362 -8.7079
HEad  -9.08596 41.6866 -25.1083
LeftShoulder1  -0.103365 3.79736 -29.0681
LeftArm  -7.80305 23.3523 -30.2609
LeftForeArm  4.45547 -28.5169 -5.93234
LeftHand  0.317011 -2.0885 -4.75912
RightShoulder  9.33258 15.2619 43.3635
RightArm  21.4131 8.86003 19.8006
RightForeArm  -1.31196 28.5577 6.25501
RightHand  0.242027 4.01182 2.71698
LeftUpLeg  -18.1074 -0.591664 -8.28557
LeftLeg  -0.758266 20.9195 -5.66985
LeftFoot  -4.16511 0.823289 -12.6914
LeftToes  1.48244e-010 1.61973e-010 3.308e-011
2235
root  -18.4339 37.3759 82.0101 -12.4126 81.3082 -13.8426
RightUpLeg  25.3735 -37.6548 -16.4546
RightLeg  18.0009 5.51244 1.83279
RightFoot  -12.4029 0.225737 32.7306
RightToes  7.56698e-010 0 -3.6325e-017
Spine  6.02149 4.90038 9.99213
Spine1  0.82382 7.42077 -9.85991
HEad  -13.5524 41.3482 -24.8781
LeftShoulder1  0.00544025 3.48859 -29.566
LeftArm  -3.25799 22.9537 -29.5728
LeftForeArm  -2.39383 -23.325 -5.16361
LeftHand  0.313863 -1.62154 -5.06997
RightShoulder  11.0803 18.055 44.8524
RightArm  21.1243 11.0473 21.1042
RightForeArm  -0.943062 28.5177 6.2258
RightHand  0.239714 4.10897 2.65428
LeftUpLeg  -19.6277 0.318767 -9.95031
LeftLeg  6.67005 22.1655 -3.4927
LeftFoot  -4.27451 -0.30307 5.32224
LeftToes  1.48244e-010 1.61973e-010 3.308e-011
2236
root  -17.0065 37.0068 82.4189 2.18701 81.9126 1.44014
RightUpLeg  17.5512 -28.4798 -16.1199
RightLeg  33.2842 5.29657 3.49348
RightFoot  -7.11847 -1.42372 36.102
RightToes  7.56698e-010 0 -3.6325e-017
Spine  7.29209 4.73906 6.9211
Spine1  0.665902 7.36469 -11.5762
HEad  -18.8657 41.9079 -26.268
LeftShoulder1  0.236609 2.87175 -31.3289
LeftArm  -6.89347 21.0252 -26.5668
LeftForeArm  -0.82015 -15.5674 -9.97113
LeftHand  0.307973 -0.731368 -5.79829
RightShoulder  12.7631 20.8957 45.6328
RightArm  20.2738 13.4544 23.2372
RightForeArm  -0.365481 27.3328 5.91211
RightHand  0.274961 4.48949 2.9405
LeftUpLeg  -20.3925 -0.938602 -14.3769
LeftLeg  12.9557 23.2346 2.04395
LeftFoot  -1.84499 -1.36492 16.4445
LeftToes  1.48244e-010 1.61973e-010 3.308e-011
2237
root  -15.7745 36.7742 82.8314 17.738 83.5743 17.0859
RightUpLeg  7.13192 -19.2507 -14.1606
RightLeg  49.214 4.43834 5.15933
RightFoot  6.72223 -4.45854 27.8322
RightToes  7.56698e-010 0 -3.6325e-017
Spine  8.42918 4.19809 4.26159
Spine1  0.842357 6.79844 -12.3924
HEad  -24.27 41.7871 -29.0346
LeftShoulder1  0.601645 1.98245 -33.452
LeftArm  -15.0648 16.7907 -23.9337
LeftForeArm  4.90254 -4.76513 -14.5386
LeftHand  0.272262 0.942587 -7.32744
RightShoulder  13.9061 22.9553 45.8131
RightArm  18.571 15.504 24.8545
RightForeArm  -0.123204 26.4949 5.70355
RightHand  0.303938 4.82751 3.15024
LeftUpLeg  -20.9465 5.93918 -18.6086
LeftLeg  18.3163 14.476 3.86222
LeftFoot  -4.46346 -0.981002 16.6474
LeftToes  1.48244e-010 1.61973e-010 3.308e-011
2238
root  -14.6886 36.4952 83.2275 36.1064 85.0368 36.004
RightUpLeg  -1.55557 -11.9166 -12.9299
RightLeg  61.5287 4.26118 7.97854
RightFoot  18.6199 -4.88313 18.5983
RightToes  7.56698e-010 0 -3.6325e-017
Spine  10.1229 3.85543 2.09138
Spine1  1.6393 6.33949 -13.5257
HEad  -27.0396 41.8106 -30.9052
LeftShoulder1  0.912797 1.21515 -33.7991
LeftArm  -16.4694 13.609 -24.7125
LeftForeArm  6.97225 2.27321 -15.4123
LeftHand  0.288123 1.47443 -8.91035
RightShoulder  14.4313 24.1651 45.42
RightArm  17.9106 16.1905 26.5471
RightForeArm  -0.715718 26.5814 5.75446
RightHand  0.266304 4.7162 2.76065
LeftUpLeg  -20.8454 8.63125 -20.1827
LeftLeg  23.3367 10.2603 4.44356
LeftFoot  -8.09078 -0.408567 16.0112
LeftToes  1.48244e-010 1.61973e-010 3.308e-011
2239
root  -13.4141 36.4554 83.5066 76.5388 87.1833 76.8578
RightUpLeg  -7.30243 -7.31465 -12.4197
RightLeg  69.1005 2.53126 6.60596
RightFoot  13.6342 -4.04863 18.5671
RightToes  7.56698e-010 0 -3.6325e-017
Spine  10.5203 2.99575 0.939802
Spine1  2.51252 5.15512 -13.3411
HEad  -26.8797 42.9426 -31.4969
LeftShoulder1  1.12698 0.691282 -33.9922
LeftArm  -12.977 12.3687 -26.686
LeftForeArm  9.98542 3.88148 -16.102
LeftHand  0.371721 1.01794 -10.1279
RightShoulder  14.6718 24.4507 45.7105
RightArm  19.4847 15.7974 26.6359
RightForeArm  -1.01647 26.6911 5.79562
RightHand  0.275001 4.8085 2.8286
LeftUpLeg  -18.8862 6.14556 -19.7729
LeftLeg  26.1276 9.87431 5.36234
LeftFoot  -10.6452 -0.0300771 15.4427
LeftToes  1.48244e-010 1.61973e-010 3.308e-011
2240
root  -11.9464 36.6947 83.7132 162.416 85.0563 163.285
RightUpLeg  -11.0999 -5.852 -11.4094
RightLeg  71.717 0.870017 2.08505
RightFoot  10.9651 -2.61686 13.6023
RightToes  7.56698e-010 0 -3.6325e-017
Spine  10.332 1.81203 0.262595
Spine1  3.01586 3.33595 -10.9723
HEad  -23.7891 44.1194 -29.6683
LeftShoulder1  1.22936 0.466576 -34.3962
LeftArm  -9.11176 11.465 -29.2532
LeftForeArm  14.1608 3.33869 -16.5515
LeftHand  0.422018 0.260806 -9.65533
RightShoulder  13.7492 22.6053 45.9151
RightArm  22.0811 14.3151 26.3511
RightForeArm  0.177193 26.3406 5.6522
RightHand  0.246892 5.07597 2.42854
LeftUpLeg  -14.8905 2.03816 -18.0422
LeftLeg  26.4952 9.15866 5.2327
LeftFoot  -12.2739 0.196792 14.9752
LeftToes  1.48244e-010 1.61973e-010 3.308e-011
2241
root  -10.3996 37.0851 83.8797 -178.495 80.314 -177.263
RightUpLeg  -14.6356 -4.68238 -9.81084
RightLeg  70.9424 -0.882386 -3.71364
RightFoot  8.2761 -1.59448 9.53301
RightToes  7.56698e-010 0 -3.6325e-017
Spine  10.0036 1.31448 0.58103
Spine1  2.95907 2.48751 -9.13114
HEad  -19.957 44.4674 -25.9636
LeftShoulder1  1.22766 0.460515 -34.2621
LeftArm  -8.49616 10.7263 -31.8042
LeftForeArm  14.9641 1.80182 -16.4605
LeftHand  0.422551 -0.106179 -8.9699
RightShoulder  12.2996 19.4801 46.7483
RightArm  25.3014 11.6067 25.1359
RightForeArm  -0.283276 25.3512 5.44974
RightHand  0.156438 4.99672 1.4427
LeftUpLeg  -10.5731 -0.347126 -15.5243
LeftLeg  25.3155 7.31132 4.03628
LeftFoot  -13.5165 0.359706 14.5618
LeftToes  1.48244e-010 1.61973e-010 3.308e-011
2242
root  -8.83205 37.5105 83.9742 -171.778 76.0092 -170.597
RightUpLeg  -18.2129 -3.71423 -8.21406
RightLeg  67.4317 -3.50045 -9.89761
RightFoot  6.80672 -0.540841 3.67733
RightToes  7.56698e-010 0 -3.6325e-017
Spine  9.2867 1.18779 1.62383
Spine1  2.69344 2.38096 -8.11419
HEad  -16.7283 44.3422 -21.7519
LeftShoulder1  1.15312 0.603023 -33.6795
LeftArm  -8.50138 10.5059 -34.162
LeftForeArm  12.755 -1.4221 -16.0254
LeftHand  0.408526 -0.0489384 -8.77241
RightShoulder  10.8816 16.3279 48.0062
RightArm  29.6318 8.45359 23.4825
RightForeArm  -3.64301 22.9333 5.2964
RightHand  0.0917633 4.8383 0.741851
LeftUpLeg  -6.47038 -0.955585 -12.7473
LeftLeg  22.9188 4.20296 2.27404
LeftFoot  -14.09 0.44511 14.9135
LeftToes  1.48244e-010 1.61973e-010 3.308e-011
2243
root  -7.30367 37.8675 84.0302 -169.31 71.6447 -168.128
RightUpLeg  -20.6898 -3.30342 -7.30916
RightLeg  60.6992 -5.32504 -10.6641
RightFoot  4.81611 -0.455617 3.44069
RightToes  7.56698e-010 0 -3.6325e-017
Spine  9.19107 0.995874 2.30952
Spine1  1.91235 2.16181 -7.03754
HEad  -14.2549 43.9476 -17.8099
LeftShoulder1  1.06207 0.79249 -33.101
LeftArm  -7.27062 10.1128 -35.836
LeftForeArm  11.2379 -4.82754 -15.2853
LeftHand  0.437255 -0.603313 -8.44823
RightShoulder  9.635 13.7553 48.8783
RightArm  28.642 5.37089 21.7688
RightForeArm  -2.03353 18.4278 8.48916
RightHand  0.110655 4.85106 0.954028
LeftUpLeg  -2.34482 -1.49299 -10.2743
LeftLeg  20.0011 1.09694 1.13319
LeftFoot  -14.3094 0.484369 15.2609
LeftToes  1.48244e-010 1.61973e-010 3.308e-011
2244
root  -5.80213 38.1132 84.0472 -168.602 67.4862 -167.747
RightUpLeg  -22.321 -3.46625 -6.95949
RightLeg  50.8846 -6.8424 -9.28343
RightFoot  3.81474 -0.830737 6.43388
RightToes  7.56698e-010 0 -3.6325e-017
Spine  8.80215 0.783903 2.58174
Spine1  1.50419 1.9106 -6.06998
HEad  -12.8665 43.1731 -15.2616
LeftShoulder1  1.04485 0.809398 -32.7099
LeftArm  -2.5065 9.26835 -36.642
LeftForeArm  8.99068 -8.89122 -14.0989
LeftHand  0.460926 -1.27123 -7.94009
RightShoulder  8.52224 11.8513 48.6073
RightArm  18.7002 2.87484 20.7986
RightForeArm  8.52994 9.81429 14.2602
RightHand  0.132745 4.87347 1.20009
LeftUpLeg  1.01701 -1.10849 -7.95522
LeftLeg  17.5929 -3.07167 0.164922
LeftFoot  -14.7091 0.532961 15.0131
LeftToes  1.48244e-010 1.61973e-010 3.308e-011
